<?xml version="1.0" encoding="UTF-8"?>
<svg version="1.1" xmlns="http://www.w3.org/2000/svg" width="500" height="500">
<path d="M0 0 C0.33 0.66 0.66 1.32 1 2 C0.00390625 3.9453125 0.00390625 3.9453125 -1.4375 6.125 C-2.14712891 7.21167969 -2.14712891 7.21167969 -2.87109375 8.3203125 C-3.24363281 8.87460938 -3.61617188 9.42890625 -4 10 C-2.02 10.33 -0.04 10.66 2 11 C0.5361389 15.39158329 -1.97831338 15.87947433 -6 18 C-4.68 18 -3.36 18 -2 18 C-2 18.66 -2 19.32 -2 20 C-4.31 20.99 -6.62 21.98 -9 23 C-7.02 24.485 -7.02 24.485 -5 26 C-7.31 27.65 -9.62 29.3 -12 31 C-11.34 31.66 -10.68 32.32 -10 33 C-11.98 34.32 -13.96 35.64 -16 37 C-15.34 37.66 -14.68 38.32 -14 39 C-11.47845277 37.75534881 -8.9861404 36.46763894 -6.49609375 35.16015625 C5.45689638 28.93869867 15.29254083 25.35409878 29 26 C26.93100225 28.27271445 25.16580795 29.55694402 22.3125 30.6875 C21.219375 31.120625 20.12625 31.55375 19 32 C20.65 33.65 22.3 35.3 24 37 C18.06 37.495 18.06 37.495 12 38 C13.65 38.66 15.3 39.32 17 40 C17 40.33 17 40.66 17 41 C14.03 41 11.06 41 8 41 C8.99 42.32 9.98 43.64 11 45 C6.05 45.495 6.05 45.495 1 46 C1.33 46.66 1.66 47.32 2 48 C-1.465 48.495 -1.465 48.495 -5 49 C-4.67 49.66 -4.34 50.32 -4 51 C-1.26294385 51.32116102 -1.26294385 51.32116102 2.0625 51.375 C13.69513413 52.06346202 25.20543396 54.3614608 35 61 C35 61.66 35 62.32 35 63 C31.37 63 27.74 63 24 63 C24.66 63.99 25.32 64.98 26 66 C25.67 66.99 25.34 67.98 25 69 C22.03 67.35 19.06 65.7 16 64 C16.66 65.32 17.32 66.64 18 68 C15.0280615 66.87548273 12.66559313 65.77706209 10 64 C10.33 65.65 10.66 67.3 11 69 C8.03 67.68 5.06 66.36 2 65 C1.67 65.66 1.34 66.32 1 67 C-0.98 65.68 -2.96 64.36 -5 63 C-5 63.33 -5 63.66 -5 64 C-5 64.99 -5 65.98 -5 67 C-4.30003906 67.22042969 -3.60007812 67.44085938 -2.87890625 67.66796875 C0.67895263 69.31414226 3.24961041 71.6482159 6.0625 74.3125 C6.57876953 74.78623047 7.09503906 75.25996094 7.62695312 75.74804688 C12.82017528 80.58402827 16.68955514 85.73380081 20 92 C20 92.66 20 93.32 20 94 C15.56541027 92.6062718 13.12621626 90.39417765 10 87 C9.67 89.31 9.34 91.62 9 94 C6.66475218 91.74259377 4.81294927 89.7194239 3 87 C2.34 87.66 1.68 88.32 1 89 C-0.98 85.535 -0.98 85.535 -3 82 C-3.66 83.32 -4.32 84.64 -5 86 C-6.65 83.36 -8.3 80.72 -10 78 C-10.66 78.66 -11.32 79.32 -12 80 C-15 75.375 -15 75.375 -15 72 C-15.66 72 -16.32 72 -17 72 C-17.56793065 76.92206565 -15.53126436 80.31810101 -13.25 84.5 C-7.62996161 95.22938902 -3.8231569 106.07778828 -3.9375 118.3125 C-3.94652344 119.56675781 -3.95554687 120.82101563 -3.96484375 122.11328125 C-3.98224609 123.54220703 -3.98224609 123.54220703 -4 125 C-4.66 125 -5.32 125 -6 125 C-7.98 119.555 -7.98 119.555 -10 114 C-11.65 115.65 -13.3 117.3 -15 119 C-15.33 115.04 -15.66 111.08 -16 107 C-16.99 108.32 -17.98 109.64 -19 111 C-19 107.7 -19 104.4 -19 101 C-20.98 101.99 -20.98 101.99 -23 103 C-23 99.04 -23 95.08 -23 91 C-26.6601051 96.49015766 -26.87785391 104.50388103 -26 111 C-24.47331535 114.01944296 -22.73568629 115.94833666 -20.38671875 118.37109375 C-5.27145746 135.02014587 2.68181909 162.16168216 5 184 C5.1340625 185.18207031 5.268125 186.36414063 5.40625 187.58203125 C7.18409649 207.52219583 4.41607453 227.78376185 -2.8125 246.4375 C-5.10035262 252.57342278 -5.16258061 256.66930894 -4 263 C-3.79247997 265.20654205 -3.60530911 267.41508315 -3.4375 269.625 C-3.35371094 270.64851563 -3.26992188 271.67203125 -3.18359375 272.7265625 C-3.12300781 273.47679687 -3.06242187 274.22703125 -3 275 C-5.1038947 271.84415795 -6.05790973 269.09216533 -7.25 265.5 C-14.06895574 245.84880143 -27.17344886 229.8284147 -45.9140625 220.55859375 C-71.03892456 209.45459798 -98.93696782 211.23553583 -124.19970703 220.8359375 C-142.81014348 228.26860132 -159.39480846 239.01987317 -175.78125 250.421875 C-193.27607255 262.52500281 -211.36545658 272.24486313 -233.33984375 269.59765625 C-242.63493976 267.57594296 -250.72183938 263.20561617 -257 256 C-258.19745236 253.52902183 -259.17041838 251.25860891 -260.0625 248.6875 C-260.3114502 247.99978516 -260.56040039 247.31207031 -260.81689453 246.60351562 C-263.41644596 239.20878907 -265.27328025 231.63819561 -267 224 C-269.14013674 229.68043073 -269.06761726 232.32134598 -266.5625 238.0625 C-266.28245117 238.71025391 -266.00240234 239.35800781 -265.71386719 240.02539062 C-264.83453363 242.02945314 -263.92182665 244.01517497 -263 246 C-262.46761719 247.17433594 -261.93523437 248.34867188 -261.38671875 249.55859375 C-257.08716855 258.59893677 -251.8203038 266.87007167 -246 275 C-245.33484375 275.94101562 -244.6696875 276.88203125 -243.984375 277.8515625 C-240.14650388 282.00673793 -234.68416858 281.81821913 -229.2890625 282.18359375 C-204.51458918 282.7869835 -182.0931388 267.26821769 -161.5625 255 C-132.06506569 237.42463811 -96.77976586 217.42042528 -61.33984375 226.03125 C-42.99831318 231.35136647 -27.32679112 242.64357857 -17.4921875 259.18359375 C-12.20503247 269.16275285 -7.23366236 280.50493545 -8 292 C-9.85324813 289.2201278 -11.2769528 286.41047525 -12.71435547 283.40209961 C-19.80542072 268.66665873 -28.26837082 260.54487678 -44.03515625 254.93359375 C-47.41889589 253.86809471 -50.45214582 253.19710301 -54 253 C-54.78246094 252.94972656 -55.56492187 252.89945313 -56.37109375 252.84765625 C-82.33923511 251.905416 -104.44620431 266.44510996 -123 283 C-141.20878226 299.23218993 -161.29407369 310.31588202 -184 319 C-185.66789243 319.66359405 -187.33506886 320.3290108 -189 321 C-181.34132607 324.7437933 -174.43693524 328.10352079 -165.8125 326 C-163.13686902 325.0762032 -160.59472029 324.10879382 -158 323 C-156.80648926 322.50306641 -156.80648926 322.50306641 -155.58886719 321.99609375 C-137.31288169 314.23210448 -121.71669171 303.29702211 -106.109375 291.1796875 C-86.33821479 275.83225424 -86.33821479 275.83225424 -77 271 C-76.23558594 270.58878906 -75.47117187 270.17757813 -74.68359375 269.75390625 C-68.36991754 266.89842515 -62.26189239 266.61866784 -55.4375 266.5625 C-54.56311279 266.55234863 -53.68872559 266.54219727 -52.7878418 266.53173828 C-40.88481285 266.6901924 -29.74116287 270.94868683 -20.82421875 278.953125 C-16.90172975 283.21998669 -14.35510782 287.72455848 -12 293 C-15.85659162 291.55377814 -19.47762994 289.78682503 -23.1328125 287.90234375 C-30.71291533 284.23915598 -40.33190287 285.15646632 -48.1875 287.5625 C-57.6862161 291.16546128 -65.27771699 297.11345382 -73.015625 303.55078125 C-89.14692606 316.78942754 -106.06474355 326.45505433 -126.12353516 332.43359375 C-128.76831391 333.23191364 -131.38389573 334.11290656 -134 335 C-134 335.33 -134 335.66 -134 336 C-153.3645841 339.74798402 -179.95455688 337.26323321 -198 329 C-199.00259402 328.00260077 -200.00261437 327.00260755 -201 326 C-205.24769676 323.69475532 -209.17987131 323.87718699 -213.875 324.0625 C-230.7595052 324.3767663 -246.09916954 320.20335276 -259 309 C-270.86244484 297.0256453 -277.95130786 280.09885693 -278.1875 263.1875 C-278.54655822 256.53594649 -281.47832245 251.3993227 -284.4152832 245.55810547 C-292.82441634 228.56614508 -297.24464612 208.90673657 -298 190 C-298.02723145 189.35901367 -298.05446289 188.71802734 -298.08251953 188.05761719 C-299.49247575 149.97993164 -285.85905109 116.10671106 -260.12182617 88.31958008 C-238.83910899 65.71830332 -207.5408602 49.27069164 -176.10546875 47.8203125 C-173.06280315 47.81371951 -170.03906446 47.85949531 -167 48 C-169.73881435 52.10822153 -172.9400431 52.1707892 -177.5 53.1875 C-198.90244816 58.41812492 -217.88118787 69.08075153 -234 84 C-234.48984375 84.45133301 -234.9796875 84.90266602 -235.484375 85.36767578 C-261.76416336 109.87251876 -275.5914017 143.4296622 -277 179 C-277.36291647 194.73332145 -274.45433114 209.70768557 -271 225 C-268.17495502 221.64453841 -267.7319589 219.79739312 -268.09277344 215.36791992 C-268.1652832 214.64838135 -268.23779297 213.92884277 -268.3125 213.1875 C-268.43138794 211.64606197 -268.54722124 210.10438561 -268.66015625 208.5625 C-268.74934326 207.40621094 -268.74934326 207.40621094 -268.84033203 206.2265625 C-271.45939406 169.70386268 -258.14481161 135.79314198 -235 108 C-234.48695313 107.36320312 -233.97390625 106.72640625 -233.4453125 106.0703125 C-229.70776779 101.52465001 -225.54838551 97.72413113 -221 94 C-220.06285156 93.22527344 -219.12570313 92.45054687 -218.16015625 91.65234375 C-193.42761567 71.65848138 -163.46548952 61.56385669 -131.75 61.6875 C-130.73534668 61.68724319 -130.73534668 61.68724319 -129.70019531 61.6869812 C-120.33474394 61.69707328 -111.4374356 62.26650105 -102.3125 64.44140625 C-96.7616865 65.37745145 -92.12804576 64.24524969 -87 62.125 C-76.8108343 58.28661566 -66.25445117 56.74379184 -55.4140625 56.30859375 C-54.61742187 56.20675781 -53.82078125 56.10492188 -53 56 C-52.67 55.34 -52.34 54.68 -52 54 C-54.31 53.67 -56.62 53.34 -59 53 C-58.67 52.34 -58.34 51.68 -58 51 C-61.3 51 -64.6 51 -68 51 C-67.67 50.01 -67.34 49.02 -67 48 C-66.34 47.67 -65.68 47.34 -65 47 C-67.97 47 -70.94 47 -74 47 C-73.01 46.01 -73.01 46.01 -72 45 C-75.3 44.67 -78.6 44.34 -82 44 C-79.525 41.525 -79.525 41.525 -77 39 C-80.3 37.35 -83.6 35.7 -87 34 C-87 33.67 -87 33.34 -87 33 C-75.35823066 32.46199782 -65.39420476 33.19521503 -54.78125 38.65625 C-52.15092317 40.24084356 -52.15092317 40.24084356 -49.625 39.6875 C-49.08875 39.460625 -48.5525 39.23375 -48 39 C-51.465 37.515 -51.465 37.515 -55 36 C-55 35.34 -55 34.68 -55 34 C-54.01 34 -53.02 34 -52 34 C-54.97 32.35 -57.94 30.7 -61 29 C-60.67 28.34 -60.34 27.68 -60 27 C-58.02 26.505 -58.02 26.505 -56 26 C-58.97 25.01 -61.94 24.02 -65 23 C-63.68 22.34 -62.36 21.68 -61 21 C-63.64 19.35 -66.28 17.7 -69 16 C-68.67 15.34 -68.34 14.68 -68 14 C-65.4375 13.375 -65.4375 13.375 -63 13 C-64.98 10.36 -66.96 7.72 -69 5 C-66 4 -66 4 -63.65234375 5.046875 C-48.36932878 14.63449302 -39.51717834 28.9851418 -32 45 C-31.6596875 43.99582031 -31.319375 42.99164063 -30.96875 41.95703125 C-24.96202162 24.78348868 -16.17186564 9.40491477 0 0 Z M-75.5625 70.5 C-76.7690625 71.7375 -76.7690625 71.7375 -78 73 C-76.68 73.33 -75.36 73.66 -74 74 C-73.34 72.02 -72.68 70.04 -72 68 C-73.47736982 67.88361269 -73.47736982 67.88361269 -75.5625 70.5 Z M-69.125 71.5 C-69.84945312 71.9640625 -70.57390625 72.428125 -71.3203125 72.90625 C-71.87460937 73.2671875 -72.42890625 73.628125 -73 74 C-71.15351087 75.12926265 -71.15351087 75.12926265 -69 76 C-66.23197129 74.98922073 -66.23197129 74.98922073 -64 73 C-63.12177688 70.91466367 -63.12177688 70.91466367 -63 69 C-65.67550292 69 -66.89044641 70.05835252 -69.125 71.5 Z M-39 77 C-40.03513247 79.0762657 -41.05266211 81.16131479 -42.0625 83.25 C-42.63097656 84.41015625 -43.19945312 85.5703125 -43.78515625 86.765625 C-45.17464797 89.78710444 -45.17464797 89.78710444 -44.84375 92.3125 C-43.5567236 94.8865528 -41.4962367 95.71987862 -39 97 C-36.74114676 93.74602492 -36.74114676 93.74602492 -36 90 C-36.66 90 -37.32 90 -38 90 C-38 85.71 -38 81.42 -38 77 C-38.33 77 -38.66 77 -39 77 Z M-56 78 C-56.33 79.98 -56.66 81.96 -57 84 C-54.32752366 86.34287418 -54.32752366 86.34287418 -51 87 C-50.01 84.03 -49.02 81.06 -48 78 C-50.31 79.32 -52.62 80.64 -55 82 C-55.33 80.68 -55.66 79.36 -56 78 Z M1 82 C2 84 2 84 2 84 Z M-26 83 C-25 87 -25 87 -25 87 Z " fill="#FEBD59" transform="translate(409,75)"/>
<path d="M0 0 C-2.73881435 4.10822153 -5.9400431 4.1707892 -10.5 5.1875 C-31.90244816 10.41812492 -50.88118787 21.08075153 -67 36 C-67.48984375 36.45133301 -67.9796875 36.90266602 -68.484375 37.36767578 C-94.76416336 61.87251876 -108.5914017 95.4296622 -110 131 C-110.36291647 146.73332145 -107.45433114 161.70768557 -104 177 C-102.02 175.02 -102.02 175.02 -100 173 C-100.21398437 173.54785156 -100.42796875 174.09570312 -100.6484375 174.66015625 C-103.32348707 183.5050782 -99.74671488 190.13210008 -96 198 C-95.46761719 199.17046875 -94.93523437 200.3409375 -94.38671875 201.546875 C-90.09771719 210.59574702 -84.82180678 218.86797228 -79 227 C-78.00226563 228.41152344 -78.00226563 228.41152344 -76.984375 229.8515625 C-73.14650388 234.00673793 -67.68416858 233.81821913 -62.2890625 234.18359375 C-37.51458918 234.7869835 -15.0931388 219.26821769 5.4375 207 C34.93493431 189.42463811 70.22023414 169.42042528 105.66015625 178.03125 C124.00168682 183.35136647 139.67320888 194.64357857 149.5078125 211.18359375 C154.79496753 221.16275285 159.76633764 232.50493545 159 244 C157.14675187 241.2201278 155.7230472 238.41047525 154.28564453 235.40209961 C147.19457928 220.66665873 138.73162918 212.54487678 122.96484375 206.93359375 C119.58110411 205.86809471 116.54785418 205.19710301 113 205 C112.21753906 204.94972656 111.43507813 204.89945313 110.62890625 204.84765625 C84.66076489 203.905416 62.55379569 218.44510996 44 235 C25.79121774 251.23218993 5.70592631 262.31588202 -17 271 C-18.66789243 271.66359405 -20.33506886 272.3290108 -22 273 C-14.34132607 276.7437933 -7.43693524 280.10352079 1.1875 278 C3.86313098 277.0762032 6.40527971 276.10879382 9 275 C10.19351074 274.50306641 10.19351074 274.50306641 11.41113281 273.99609375 C29.68711831 266.23210448 45.28330829 255.29702211 60.890625 243.1796875 C80.66178521 227.83225424 80.66178521 227.83225424 90 223 C90.76441406 222.58878906 91.52882813 222.17757812 92.31640625 221.75390625 C98.63008246 218.89842515 104.73810761 218.61866784 111.5625 218.5625 C112.87408081 218.54727295 112.87408081 218.54727295 114.2121582 218.53173828 C126.11518715 218.6901924 137.25883713 222.94868683 146.17578125 230.953125 C150.09827025 235.21998669 152.64489218 239.72455848 155 245 C151.14340838 243.55377814 147.52237006 241.78682503 143.8671875 239.90234375 C136.28708467 236.23915598 126.66809713 237.15646632 118.8125 239.5625 C109.3137839 243.16546128 101.72228301 249.11345382 93.984375 255.55078125 C77.85307394 268.78942754 60.93525645 278.45505433 40.87646484 284.43359375 C38.23168609 285.23191364 35.61610427 286.11290656 33 287 C33 287.33 33 287.66 33 288 C13.6354159 291.74798402 -12.95455688 289.26323321 -31 281 C-32.00259402 280.00260077 -33.00261437 279.00260755 -34 278 C-38.24769676 275.69475532 -42.17987131 275.87718699 -46.875 276.0625 C-63.7595052 276.3767663 -79.09916954 272.20335276 -92 261 C-103.86244484 249.0256453 -110.95130786 232.09885693 -111.1875 215.1875 C-111.54655822 208.53594649 -114.47832245 203.3993227 -117.4152832 197.55810547 C-125.82441634 180.56614508 -130.24464612 160.90673657 -131 142 C-131.02723145 141.35901367 -131.05446289 140.71802734 -131.08251953 140.05761719 C-132.49247575 101.97993164 -118.85905109 68.10671106 -93.12182617 40.31958008 C-69.69782908 15.44436153 -34.62815376 -1.60095916 0 0 Z " fill="#00BF63" transform="translate(242,123)"/>
<path d="M0 0 C0.33 0.66 0.66 1.32 1 2 C0.00390625 3.9453125 0.00390625 3.9453125 -1.4375 6.125 C-2.14712891 7.21167969 -2.14712891 7.21167969 -2.87109375 8.3203125 C-3.24363281 8.87460938 -3.61617187 9.42890625 -4 10 C-2.02 10.33 -0.04 10.66 2 11 C0.5361389 15.39158329 -1.97831338 15.87947433 -6 18 C-4.68 18 -3.36 18 -2 18 C-2 18.66 -2 19.32 -2 20 C-4.31 20.99 -6.62 21.98 -9 23 C-7.02 24.485 -7.02 24.485 -5 26 C-7.31 27.65 -9.62 29.3 -12 31 C-11.01 31.99 -11.01 31.99 -10 33 C-11.98 34.32 -13.96 35.64 -16 37 C-15.34 37.66 -14.68 38.32 -14 39 C-11.47845277 37.75534881 -8.9861404 36.46763894 -6.49609375 35.16015625 C5.45689638 28.93869867 15.29254083 25.35409878 29 26 C26.93100225 28.27271445 25.16580795 29.55694402 22.3125 30.6875 C21.219375 31.120625 20.12625 31.55375 19 32 C20.65 33.65 22.3 35.3 24 37 C18.06 37.495 18.06 37.495 12 38 C13.65 38.66 15.3 39.32 17 40 C17 40.33 17 40.66 17 41 C14.03 41 11.06 41 8 41 C8.99 42.32 9.98 43.64 11 45 C6.05 45.495 6.05 45.495 1 46 C1.33 46.66 1.66 47.32 2 48 C-1.465 48.495 -1.465 48.495 -5 49 C-4.67 49.66 -4.34 50.32 -4 51 C-1.26294385 51.32116102 -1.26294385 51.32116102 2.0625 51.375 C13.69513413 52.06346202 25.20543396 54.3614608 35 61 C35 61.66 35 62.32 35 63 C31.37 63 27.74 63 24 63 C24.66 63.99 25.32 64.98 26 66 C25.67 66.99 25.34 67.98 25 69 C22.03 67.35 19.06 65.7 16 64 C16.66 65.32 17.32 66.64 18 68 C15.0280615 66.87548273 12.66559313 65.77706209 10 64 C10.33 65.65 10.66 67.3 11 69 C8.03 67.68 5.06 66.36 2 65 C1.67 65.66 1.34 66.32 1 67 C-1.97 65.02 -1.97 65.02 -5 63 C-5 63.33 -5 63.66 -5 64 C-5 64.99 -5 65.98 -5 67 C-4.30003906 67.22042969 -3.60007812 67.44085938 -2.87890625 67.66796875 C0.67895263 69.31414226 3.24961041 71.6482159 6.0625 74.3125 C6.57876953 74.78623047 7.09503906 75.25996094 7.62695312 75.74804688 C12.82017528 80.58402827 16.68955514 85.73380081 20 92 C20 92.66 20 93.32 20 94 C15.56541027 92.6062718 13.12621626 90.39417765 10 87 C9.67 89.31 9.34 91.62 9 94 C6.66475218 91.74259377 4.81294927 89.7194239 3 87 C2.34 87.66 1.68 88.32 1 89 C-0.98 85.535 -0.98 85.535 -3 82 C-3.99 83.98 -3.99 83.98 -5 86 C-6.65 83.36 -8.3 80.72 -10 78 C-10.66 78.66 -11.32 79.32 -12 80 C-15 75.375 -15 75.375 -15 72 C-15.66 72 -16.32 72 -17 72 C-17.56793065 76.92206565 -15.53126436 80.31810101 -13.25 84.5 C-7.62996161 95.22938902 -3.8231569 106.07778828 -3.9375 118.3125 C-3.94652344 119.56675781 -3.95554687 120.82101563 -3.96484375 122.11328125 C-3.98224609 123.54220703 -3.98224609 123.54220703 -4 125 C-4.66 125 -5.32 125 -6 125 C-7.98 119.555 -7.98 119.555 -10 114 C-11.65 115.65 -13.3 117.3 -15 119 C-15.33 115.04 -15.66 111.08 -16 107 C-16.99 108.32 -17.98 109.64 -19 111 C-19 107.7 -19 104.4 -19 101 C-20.98 101.99 -20.98 101.99 -23 103 C-23 99.04 -23 95.08 -23 91 C-26.6601051 96.49015766 -26.87785391 104.50388103 -26 111 C-24.47331535 114.01944296 -22.73568629 115.94833666 -20.38671875 118.37109375 C-5.27145746 135.02014587 2.68181909 162.16168216 5 184 C5.1340625 185.18207031 5.268125 186.36414063 5.40625 187.58203125 C7.18409649 207.52219583 4.41607453 227.78376185 -2.8125 246.4375 C-5.10035262 252.57342278 -5.16258061 256.66930894 -4 263 C-3.79247997 265.20654205 -3.60530911 267.41508315 -3.4375 269.625 C-3.35371094 270.64851563 -3.26992188 271.67203125 -3.18359375 272.7265625 C-3.12300781 273.47679687 -3.06242188 274.22703125 -3 275 C-5.1038947 271.84415795 -6.05790973 269.09216533 -7.25 265.5 C-14.06895574 245.84880143 -27.17344886 229.8284147 -45.9140625 220.55859375 C-71.03892456 209.45459798 -98.93696782 211.23553583 -124.19970703 220.8359375 C-142.81014348 228.26860132 -159.39480846 239.01987317 -175.78125 250.421875 C-193.27607255 262.52500281 -211.36545658 272.24486313 -233.33984375 269.59765625 C-242.04946107 267.70328646 -250.02468704 263.72222708 -256 257 C-256 256.34 -256 255.68 -256 255 C-254.34291016 255.48533203 -254.34291016 255.48533203 -252.65234375 255.98046875 C-247.60885118 257.23551608 -242.73849103 257.33115894 -237.5625 257.3125 C-236.22735352 257.33666992 -236.22735352 257.33666992 -234.86523438 257.36132812 C-228.69543206 257.36583492 -223.71302516 256.28422881 -218 254 C-216.99453125 253.62359375 -215.9890625 253.2471875 -214.953125 252.859375 C-198.88976809 246.26689904 -185.37902769 237.3862999 -172.25 226.125 C-145.77356448 203.74102427 -113.28389763 185.46465002 -77.875 186.80712891 C-76 187 -76 187 -73 188 C-73.03480469 187.02804687 -73.06960938 186.05609375 -73.10546875 185.0546875 C-74.00236215 148.55698533 -62.45013645 112.48225457 -49 79 C-49.598125 79.515625 -50.19625 80.03125 -50.8125 80.5625 C-51.534375 81.036875 -52.25625 81.51125 -53 82 C-53.99 81.67 -54.98 81.34 -56 81 C-57.32 82.98 -58.64 84.96 -60 87 C-60.66 86.01 -61.32 85.02 -62 84 C-63.98 87.3 -65.96 90.6 -68 94 C-70.97 93.505 -70.97 93.505 -74 93 C-74.33 93.66 -74.66 94.32 -75 95 C-75.33 93.68 -75.66 92.36 -76 91 C-76.40992188 91.71027344 -76.81984375 92.42054688 -77.2421875 93.15234375 C-77.78101563 94.07144531 -78.31984375 94.99054688 -78.875 95.9375 C-79.40867187 96.85402344 -79.94234375 97.77054687 -80.4921875 98.71484375 C-82 101 -82 101 -84 102 C-84.33 100.02 -84.66 98.04 -85 96 C-88.3 98.64 -91.6 101.28 -95 104 C-95.33 103.34 -95.66 102.68 -96 102 C-87.91810062 90.39145362 -77.8906133 77.80828922 -64 73 C-64.33 72.01 -64.66 71.02 -65 70 C-67.64 71.65 -70.28 73.3 -73 75 C-74 73 -74 73 -74 70 C-74.61875 70.495 -75.2375 70.99 -75.875 71.5 C-78 73 -78 73 -80 73 C-80.33 72.34 -80.66 71.68 -81 71 C-82.11375 71.66 -83.2275 72.32 -84.375 73 C-87.75 75 -87.75 75 -90 75 C-89.34 73.02 -88.68 71.04 -88 69 C-88.60328125 69.15597656 -89.2065625 69.31195313 -89.828125 69.47265625 C-90.62734375 69.66730469 -91.4265625 69.86195313 -92.25 70.0625 C-93.03890625 70.25972656 -93.8278125 70.45695312 -94.640625 70.66015625 C-97.10394822 71.01497267 -98.65604132 70.76877544 -101 70 C-87.56462939 60.04787362 -71.92340094 56.97137741 -55.4140625 56.30859375 C-54.61742187 56.20675781 -53.82078125 56.10492188 -53 56 C-52.67 55.34 -52.34 54.68 -52 54 C-54.31 53.67 -56.62 53.34 -59 53 C-58.67 52.34 -58.34 51.68 -58 51 C-61.3 51 -64.6 51 -68 51 C-67.67 50.01 -67.34 49.02 -67 48 C-66.34 47.67 -65.68 47.34 -65 47 C-67.97 47 -70.94 47 -74 47 C-73.01 46.01 -73.01 46.01 -72 45 C-75.3 44.67 -78.6 44.34 -82 44 C-79.525 41.525 -79.525 41.525 -77 39 C-80.3 37.35 -83.6 35.7 -87 34 C-87 33.67 -87 33.34 -87 33 C-75.35823066 32.46199782 -65.39420476 33.19521503 -54.78125 38.65625 C-52.15092317 40.24084356 -52.15092317 40.24084356 -49.625 39.6875 C-49.08875 39.460625 -48.5525 39.23375 -48 39 C-51.465 37.515 -51.465 37.515 -55 36 C-55 35.34 -55 34.68 -55 34 C-54.01 34 -53.02 34 -52 34 C-54.97 32.35 -57.94 30.7 -61 29 C-60.67 28.34 -60.34 27.68 -60 27 C-58.02 26.505 -58.02 26.505 -56 26 C-58.97 25.01 -61.94 24.02 -65 23 C-63.68 22.34 -62.36 21.68 -61 21 C-63.64 19.35 -66.28 17.7 -69 16 C-68.67 15.34 -68.34 14.68 -68 14 C-65.4375 13.375 -65.4375 13.375 -63 13 C-64.98 10.36 -66.96 7.72 -69 5 C-66 4 -66 4 -63.65234375 5.046875 C-48.36932878 14.63449302 -39.51717834 28.9851418 -32 45 C-31.6596875 43.99582031 -31.319375 42.99164063 -30.96875 41.95703125 C-24.96202162 24.78348868 -16.17186564 9.40491477 0 0 Z M-39 77 C-40.03513247 79.0762657 -41.05266211 81.16131479 -42.0625 83.25 C-42.63097656 84.41015625 -43.19945312 85.5703125 -43.78515625 86.765625 C-45.17464797 89.78710444 -45.17464797 89.78710444 -44.84375 92.3125 C-43.5567236 94.8865528 -41.4962367 95.71987862 -39 97 C-36.74114676 93.74602492 -36.74114676 93.74602492 -36 90 C-36.66 90 -37.32 90 -38 90 C-38 85.71 -38 81.42 -38 77 C-38.33 77 -38.66 77 -39 77 Z M1 82 C2 84 2 84 2 84 Z M-26 83 C-25 87 -25 87 -25 87 Z " fill="#02BF63" transform="translate(409,75)"/>
<path d="M0 0 C4.94240207 1.76728317 6.88888268 5.36015566 9.78515625 9.58984375 C10.38577881 10.43643555 10.98640137 11.28302734 11.60522461 12.15527344 C12.86075994 13.92605592 14.1094439 15.70171424 15.3515625 17.48193359 C17.72997407 20.87638372 20.16278005 24.22946625 22.59936523 27.58227539 C24.19923591 29.78409596 25.79280817 31.99026588 27.3828125 34.19921875 C27.87136719 34.85954102 28.35992187 35.51986328 28.86328125 36.20019531 C30.22265625 38.15234375 30.22265625 38.15234375 31.28515625 40.15917969 C33.0496194 43.3019277 34.22697691 44.84562564 37.74926758 45.93066406 C40.86957163 46.41051324 43.94772924 46.69386483 47.09765625 46.90234375 C60.54840829 47.99470785 60.54840829 47.99470785 66.22265625 51.15234375 C67.16015625 53.33984375 67.16015625 53.33984375 67.22265625 55.15234375 C62.09100205 57.56644652 57.37231962 58.89224856 51.78515625 59.77734375 C51.07294922 59.89851563 50.36074219 60.0196875 49.62695312 60.14453125 C48.91732422 60.263125 48.20769531 60.38171875 47.4765625 60.50390625 C46.77200928 60.6227417 46.06745605 60.74157715 45.34155273 60.86401367 C43.22265625 61.15234375 43.22265625 61.15234375 41.10571289 61.21606445 C38.2547548 61.33855206 35.91772721 61.57225603 33.68041992 63.43945312 C32.16040829 65.25196742 30.84381161 67.11932371 29.53515625 69.08984375 C28.78649292 70.15054077 28.78649292 70.15054077 28.02270508 71.23266602 C26.9577242 72.74346822 25.90254725 74.26122111 24.85644531 75.78515625 C22.10760959 79.76792839 19.25079112 83.67232128 16.41015625 87.58984375 C15.86367432 88.34958496 15.31719238 89.10932617 14.75415039 89.89208984 C5.19491315 103.18008685 5.19491315 103.18008685 2.22265625 106.15234375 C-0.83494432 106.41822206 -2.9857518 106.58644256 -5.71484375 105.08984375 C-7.4033599 102.01078489 -6.41062179 99.5450116 -5.77734375 96.15234375 C-4.99379958 93.48495572 -4.17497502 90.87556247 -3.2734375 88.25 C-3.03069595 87.52743515 -2.78795441 86.8048703 -2.53785706 86.06040955 C-1.76918448 83.77659556 -0.99217035 81.49572486 -0.21484375 79.21484375 C0.31110307 77.65708872 0.83649915 76.09914763 1.36132812 74.54101562 C2.64208133 70.74261122 3.93031805 66.9468214 5.22265625 63.15234375 C-44.0581896 66.88489603 -85.4874118 80.30406663 -121.77734375 115.15234375 C-122.33421875 115.68585449 -122.89109375 116.21936523 -123.46484375 116.76904297 C-151.93352069 144.55578849 -170.11143692 187.15864655 -170.98046875 226.85546875 C-171.50749328 277.23634535 -156.00782591 321.60483422 -120.77734375 358.15234375 C-120.11476563 358.86648438 -119.4521875 359.580625 -118.76953125 360.31640625 C-90.10831314 390.41668134 -45.70810065 407.09803878 -4.8125 408.4375 C53.70527899 409.53502683 108.75092353 390.18864215 153.22265625 352.15234375 C153.88265625 352.48234375 154.54265625 352.81234375 155.22265625 353.15234375 C119.50384011 395.51652103 74.0066987 423.85039179 17.93139648 428.97363281 C-30.37206713 432.16048593 -77.1290849 419.58759937 -115.77734375 390.15234375 C-116.98970703 389.23195313 -116.98970703 389.23195313 -118.2265625 388.29296875 C-158.72447972 356.72937465 -184.28492711 310.82589626 -191.06079102 260.02734375 C-193.6293885 238.01739953 -192.87242431 214.69223603 -187.77734375 193.15234375 C-187.56835449 192.25950684 -187.35936523 191.36666992 -187.14404297 190.44677734 C-179.54137627 159.08506537 -164.06843686 131.19577728 -142.77734375 107.15234375 C-141.98199219 106.23453125 -141.18664062 105.31671875 -140.3671875 104.37109375 C-135.81210199 99.18314044 -131.11128537 94.52757037 -125.77734375 90.15234375 C-125.27525391 89.72727539 -124.77316406 89.30220703 -124.25585938 88.86425781 C-87.91837862 58.11878194 -42.20137594 42.60589784 5.22265625 43.15234375 C3.83707387 38.9707859 2.44947998 34.78990251 1.06005859 30.60961914 C0.58815742 29.18890228 0.1167961 27.76800598 -0.35400391 26.34692383 C-1.03274259 24.29851056 -1.71345185 22.25076101 -2.39453125 20.203125 C-3.00723877 18.35714722 -3.00723877 18.35714722 -3.63232422 16.47387695 C-4.3369955 14.42972923 -5.09501769 12.40199442 -5.93798828 10.41088867 C-7.08971583 7.31181026 -6.68452768 5.2925958 -5.77734375 2.15234375 C-2.77734375 0.15234375 -2.77734375 0.15234375 0 0 Z " fill="#000000" transform="translate(264.77734375,20.84765625)"/>
<path d="M0 0 C0.99 1.98 0.99 1.98 2 4 C2.99 3.34 3.98 2.68 5 2 C6.65 3.32 8.3 4.64 10 6 C9.27095473 10.81553588 7.49571055 15.11042153 5.75 19.625 C-4.72266228 47.51817264 -9.60469854 77.33148483 -11 107 C-11.64960693 106.98952637 -12.29921387 106.97905273 -12.96850586 106.96826172 C-15.95813001 106.92627038 -18.94769179 106.90053833 -21.9375 106.875 C-23.46987305 106.84986328 -23.46987305 106.84986328 -25.03320312 106.82421875 C-30.61911579 106.78852602 -35.69700204 107.10645366 -41.11352539 108.51196289 C-44.37228832 109.35501545 -46.65283885 109.53793661 -50 109 C-55.25801868 105.76149714 -59.81828604 101.52077185 -64 97 C-64.72123047 96.28650391 -64.72123047 96.28650391 -65.45703125 95.55859375 C-75.59434545 84.90799782 -77.68471067 70.10311539 -77.375 56.02734375 C-77.02545655 49.35480892 -75.13671951 43.87638591 -72 38 C-71.22076172 36.53820312 -71.22076172 36.53820312 -70.42578125 35.046875 C-63.5659982 23.34207035 -52.42295599 14.45320425 -39.3828125 10.45703125 C-34.90976186 9.59908547 -30.53858514 9.82764867 -26 10 C-28.31 13.63 -30.62 17.26 -33 21 C-30.10622907 19.55311454 -27.81466922 18.24918136 -25.25 16.375 C-24.32960938 15.70597656 -24.32960938 15.70597656 -23.390625 15.0234375 C-22.93171875 14.68570313 -22.4728125 14.34796875 -22 14 C-21.505 16.97 -21.505 16.97 -21 20 C-18.69 16.37 -16.38 12.74 -14 9 C-13.01 10.485 -13.01 10.485 -12 12 C-9.55377077 12.60965385 -9.55377077 12.60965385 -7 12 C-5.12780306 10.15612058 -5.12780306 10.15612058 -3.75 7.6875 C-2.99976563 6.48673828 -2.99976563 6.48673828 -2.234375 5.26171875 C-0.88331145 2.94477142 -0.88331145 2.94477142 0 0 Z " fill="#FDFDFC" transform="translate(347,156)"/>
<path d="M0 0 C6.42857143 4.14285714 6.42857143 4.14285714 9 7 C8 10 7 13 6 16 C7.65 15.67 9.3 15.34 11 15 C9.125 19.75 9.125 19.75 8 22 C8.99 21.67 9.98 21.34 11 21 C9.55049545 24.7910119 7.84827434 28.3874638 6 32 C6.495 32.495 6.495 32.495 7 33 C7.66 33 8.32 33 9 33 C9.99 38.445 9.99 38.445 11 44 C15.82703889 31.75100708 15.82703889 31.75100708 19 19 C33.46972039 32.15429126 41.87037838 52.50836139 47 71 C47.31582031 72.13179688 47.63164062 73.26359375 47.95703125 74.4296875 C54.83474712 102.68591922 52.97240438 134.28606369 41 161 C40.34 161.33 39.68 161.66 39 162 C38.5875 160.79085937 38.175 159.58171875 37.75 158.3359375 C29.4914306 134.69014513 17.11442395 114.55721197 -6 103 C-9.62149479 101.50646383 -13.2661938 100.18335196 -17 99 C-17.21810693 87.28281077 -16.97396818 75.9197073 -15.32080078 64.31347656 C-14.96691058 61.76137344 -14.65192752 59.20597992 -14.33984375 56.6484375 C-11.98290953 37.72214042 -8.61860284 17.23720567 0 0 Z " fill="#FEBD59" transform="translate(363,167)"/>
<path d="M0 0 C-2.73881435 4.10822153 -5.9400431 4.1707892 -10.5 5.1875 C-31.90244816 10.41812492 -50.88118787 21.08075153 -67 36 C-67.48984375 36.45133301 -67.9796875 36.90266602 -68.484375 37.36767578 C-94.76416336 61.87251876 -108.5914017 95.4296622 -110 131 C-110.29681374 143.86760541 -108.52674865 156.03573867 -105.64038086 168.56347656 C-103.78342094 176.82404565 -104.44639725 182.60422072 -107 190.6875 C-108.91016436 197.14468603 -109.7540248 203.284877 -110 210 C-124.60227799 198.01980289 -128.90442745 165.71476971 -130.6875 148.125 C-130.81673311 146.08476661 -130.91839121 144.0426927 -131 142 C-131.02723145 141.35901367 -131.05446289 140.71802734 -131.08251953 140.05761719 C-132.49247575 101.97993164 -118.85905109 68.10671106 -93.12182617 40.31958008 C-69.69782908 15.44436153 -34.62815376 -1.60095916 0 0 Z " fill="#FEFEFE" transform="translate(242,123)"/>
<path d="M0 0 C6.42857143 4.14285714 6.42857143 4.14285714 9 7 C8 10 7 13 6 16 C7.65 15.67 9.3 15.34 11 15 C9.125 19.75 9.125 19.75 8 22 C8.99 21.67 9.98 21.34 11 21 C9.55049545 24.7910119 7.84827434 28.3874638 6 32 C6.495 32.495 6.495 32.495 7 33 C7.66 33 8.32 33 9 33 C12.63910441 50.74063401 11.98799905 66.50138078 2 82 C-2.36190738 88.4025658 -8.48665143 92.90255033 -15 97 C-15.66 97 -16.32 97 -17 97 C-17.23250798 85.95587084 -16.85218088 75.28621259 -15.32080078 64.34570312 C-14.96990712 61.77996012 -14.65362464 59.2111619 -14.33984375 56.640625 C-11.98032211 37.71663484 -8.61775662 17.23551325 0 0 Z " fill="#FBFCFB" transform="translate(363,167)"/>
<path d="M0 0 C1.83920032 2.75880047 2.97242271 5.36708461 4.15576172 8.44458008 C9.92499263 23.3448118 18.05519574 36.53296278 28 49 C25 50 25 50 22.328125 48.99609375 C10.83281639 43.17549967 3.18234356 37.23419013 -1.15234375 24.65625 C-2.04669778 20.79857546 -2.26622874 17.39325431 -2.25 13.4375 C-2.25773438 11.54837891 -2.25773438 11.54837891 -2.265625 9.62109375 C-2.00569779 6.07767435 -1.28067725 3.29825212 0 0 Z " fill="#FAFDFC" transform="translate(139,306)"/>
<path d="M0 0 C6.42857143 4.14285714 6.42857143 4.14285714 9 7 C8 10 7 13 6 16 C7.65 15.67 9.3 15.34 11 15 C9.125 19.75 9.125 19.75 8 22 C8.99 21.67 9.98 21.34 11 21 C9.79641403 24.42559084 8.64107354 26.53258609 6 29 C5.61328125 28.33613281 5.2265625 27.67226562 4.828125 26.98828125 C1.5620637 21.38871375 1.5620637 21.38871375 -2.4375 16.3125 C-4 14 -4 14 -3.9375 10.625 C-2.9507543 6.80958329 -1.67112208 3.5602166 0 0 Z " fill="#F2BD5B" transform="translate(363,167)"/>
<path d="M0 0 C0.66 1.32 1.32 2.64 2 4 C2.99 3.34 3.98 2.68 5 2 C7.475 3.98 7.475 3.98 10 6 C9.27991594 10.60853797 7.68704061 14.67237409 6 19 C1.69235185 17.43358249 -2.06171464 15.31663844 -6 13 C-4.31326082 8.50202887 -2.18326108 4.27113698 0 0 Z " fill="#F9BE5B" transform="translate(347,156)"/>
<path d="M0 0 C0.69287109 0.28166016 1.38574219 0.56332031 2.09960938 0.85351562 C3.79717624 1.54424973 5.49256312 2.24033728 7.1875 2.9375 C3.91431439 6.21068561 -0.51467645 5.36825919 -4.91796875 5.38232422 C-12.18891258 5.2247259 -18.38809642 3.47092197 -24.8125 -0.0625 C-25.1425 -0.7225 -25.4725 -1.3825 -25.8125 -2.0625 C-23.75189936 -2.42755516 -21.68890368 -2.77910715 -19.625 -3.125 C-18.47644531 -3.32222656 -17.32789063 -3.51945312 -16.14453125 -3.72265625 C-10.12101234 -4.33701281 -5.46539197 -2.25414731 0 0 Z " fill="#F2FBF7" transform="translate(227.8125,399.0625)"/>
<path d="M0 0 C0.66 0.33 1.32 0.66 2 1 C2 2.65 2 4.3 2 6 C0.68 6 -0.64 6 -2 6 C-1.34 4.02 -0.68 2.04 0 0 Z " fill="#DAC062" transform="translate(338,162)"/>
</svg>
